<svg width="16" height="16" viewBox="0 0 16 16" fill="none" xmlns="http://www.w3.org/2000/svg">
<g clip-path="url(#clip0_1361_267)">
<path d="M4.66667 9.33341H11.3333M4.66667 7.33341H11.3333M4.66667 11.3334H8.66667M10.6667 2.00008V3.46675C10.6667 3.6082 10.6105 3.74385 10.5105 3.84387C10.4104 3.94389 10.2748 4.00008 10.1333 4.00008H5.86667C5.72522 4.00008 5.58956 3.94389 5.48954 3.84387C5.38952 3.74385 5.33333 3.6082 5.33333 3.46675V2.00008M6.66667 2.00008C6.66667 1.64646 6.80714 1.30732 7.05719 1.05727C7.30724 0.807224 7.64638 0.666748 8 0.666748C8.35362 0.666748 8.69276 0.807224 8.94281 1.05727C9.19286 1.30732 9.33333 1.64646 9.33333 2.00008M3.6 2.00008H12.4C12.8243 2.00008 13.2313 2.16865 13.5314 2.46871C13.8314 2.76877 14 3.17574 14 3.60008V13.7334C14 14.1578 13.8314 14.5647 13.5314 14.8648C13.2313 15.1648 12.8243 15.3334 12.4 15.3334H3.6C3.38989 15.3334 3.18183 15.292 2.98771 15.2116C2.79359 15.1312 2.6172 15.0134 2.46863 14.8648C2.16857 14.5647 2 14.1578 2 13.7334V3.60008C2 3.38997 2.04139 3.18191 2.12179 2.98779C2.2022 2.79367 2.32006 2.61728 2.46863 2.46871C2.76869 2.16865 3.17565 2.00008 3.6 2.00008Z" stroke="#F5F5F6" stroke-width="1.5" stroke-miterlimit="10" stroke-linecap="round" stroke-linejoin="round"/>
</g>
<defs>
<clipPath id="clip0_1361_267">
<rect width="16" height="16" fill="white"/>
</clipPath>
</defs>
</svg>
