<svg width="16" height="16" viewBox="0 0 16 16" fill="none" xmlns="http://www.w3.org/2000/svg">
<g clip-path="url(#clip0_622_1479)">
<path fill-rule="evenodd" clip-rule="evenodd" d="M9.5 14.4999L3.5 11.9999V3.99993L9.5 1.49993V14.4999ZM2.615 13.2559C2.43285 13.1799 2.27725 13.0518 2.16781 12.8875C2.05837 12.7233 1.99998 12.5303 2 12.3329V3.66693C1.99998 3.46956 2.05837 3.2766 2.16781 3.11235C2.27725 2.94811 2.43285 2.81992 2.615 2.74393L8.923 0.114929C9.15098 0.0199222 9.39889 -0.0173197 9.64472 0.00651017C9.89056 0.03034 10.1267 0.114504 10.3322 0.251529C10.5377 0.388554 10.7062 0.5742 10.8226 0.791982C10.9391 1.00976 11.0001 1.25294 11 1.49993V1.99993H12.25C13.216 1.99993 14 2.78293 14 3.74993V12.2499C14 12.7141 13.8156 13.1592 13.4874 13.4874C13.1592 13.8156 12.7141 13.9999 12.25 13.9999H11V14.4999C11.0001 14.7469 10.9391 14.9901 10.8226 15.2079C10.7062 15.4257 10.5377 15.6113 10.3322 15.7483C10.1267 15.8854 9.89056 15.9695 9.64472 15.9933C9.39889 16.0172 9.15098 15.9799 8.923 15.8849L2.615 13.2559ZM11 12.4999H12.25C12.3163 12.4999 12.3799 12.4736 12.4268 12.4267C12.4737 12.3798 12.5 12.3162 12.5 12.2499V3.74993C12.5 3.68362 12.4737 3.62004 12.4268 3.57315C12.3799 3.52627 12.3163 3.49993 12.25 3.49993H11V12.4999Z" fill="#2D3748"/>
</g>
<defs>
<clipPath id="clip0_622_1479">
<rect width="16" height="16" fill="white"/>
</clipPath>
</defs>
</svg>
