<svg width="16" height="16" viewBox="0 0 16 16" fill="none" xmlns="http://www.w3.org/2000/svg">
<path d="M12.8783 8.99992H10.295C9.95257 8.99956 9.62397 9.13503 9.38127 9.37661C9.13857 9.61818 9.00158 9.94615 9.00034 10.2886V12.8719C9.00017 13.042 9.03353 13.2104 9.09854 13.3676C9.16354 13.5247 9.25889 13.6675 9.37915 13.7878C9.49941 13.908 9.6422 14.0034 9.79935 14.0684C9.95651 14.1334 10.1249 14.1668 10.295 14.1666H12.8783C13.2207 14.1652 13.5485 14.0281 13.7899 13.7854C14.0313 13.5427 14.1667 13.2142 14.1663 12.8719V10.2886C14.1665 10.1194 14.1333 9.95183 14.0687 9.79548C14.004 9.63914 13.9091 9.49708 13.7895 9.37744C13.6699 9.2578 13.5278 9.16294 13.3714 9.09827C13.2151 9.03361 13.0475 9.00041 12.8783 9.00059M5.70434 8.99992H3.12101C2.77874 9.00186 2.45114 9.13918 2.20981 9.3819C1.96847 9.62461 1.833 9.95298 1.83301 10.2953V12.8786C1.83283 13.0478 1.86603 13.2153 1.93069 13.3717C1.99536 13.528 2.09023 13.6701 2.20986 13.7897C2.3295 13.9094 2.47156 14.0042 2.6279 14.0689C2.78425 14.1336 2.95182 14.1668 3.12101 14.1666H5.70434C6.04666 14.1669 6.37517 14.0316 6.61785 13.7901C6.86053 13.5487 6.9976 13.2209 6.99901 12.8786V10.2953C6.99918 10.1252 6.96582 9.95675 6.90082 9.7996C6.83581 9.64244 6.74046 9.49965 6.6202 9.37939C6.49994 9.25914 6.35715 9.16378 6.2 9.09878C6.04284 9.03378 5.87441 9.00041 5.70434 9.00059M5.70434 1.83325H3.12101C2.95182 1.83308 2.78425 1.86627 2.6279 1.93094C2.47156 1.9956 2.3295 2.09047 2.20986 2.21011C2.09023 2.32974 1.99536 2.4718 1.93069 2.62815C1.86603 2.7845 1.83283 2.95206 1.83301 3.12125V5.70459C1.83265 6.04691 1.96803 6.37541 2.20946 6.61809C2.45089 6.86077 2.77869 6.99784 3.12101 6.99925H5.70434C5.87441 6.99943 6.04284 6.96606 6.2 6.90106C6.35715 6.83606 6.49994 6.7407 6.6202 6.62044C6.74046 6.50019 6.83581 6.3574 6.90082 6.20024C6.96582 6.04309 6.99918 5.87465 6.99901 5.70459V3.12125C6.9976 2.77893 6.86053 2.45114 6.61785 2.2097C6.37517 1.96827 6.04666 1.8329 5.70434 1.83325ZM12.8783 1.83325H10.295C9.95269 1.8329 9.62419 1.96827 9.3815 2.2097C9.13882 2.45114 9.00175 2.77893 9.00034 3.12125V5.70459C9.00052 6.0479 9.13698 6.3771 9.37974 6.61986C9.62249 6.86262 9.9517 6.99908 10.295 6.99925H12.8783C13.2207 6.99784 13.5485 6.86077 13.7899 6.61809C14.0313 6.37541 14.1667 6.04691 14.1663 5.70459V3.12125C14.1665 2.95206 14.1333 2.7845 14.0687 2.62815C14.004 2.4718 13.9091 2.32974 13.7895 2.21011C13.6699 2.09047 13.5278 1.9956 13.3714 1.93094C13.2151 1.86627 13.0475 1.83308 12.8783 1.83325Z" stroke="#2D3748" stroke-width="1.5" stroke-linecap="round" stroke-linejoin="round"/>
</svg>
