<svg width="16" height="16" viewBox="0 0 16 16" fill="none" xmlns="http://www.w3.org/2000/svg">
<path d="M12.8793 8.99992H10.296C9.95355 8.99956 9.62495 9.13503 9.38224 9.37661C9.13954 9.61818 9.00255 9.94615 9.00132 10.2886V12.8719C9.00114 13.042 9.03451 13.2104 9.09951 13.3676C9.16451 13.5247 9.25987 13.6675 9.38013 13.7878C9.50038 13.908 9.64317 14.0034 9.80033 14.0684C9.95749 14.1334 10.1259 14.1668 10.296 14.1666H12.8793C13.2216 14.1652 13.5494 14.0281 13.7909 13.7854C14.0323 13.5427 14.1677 13.2142 14.1673 12.8719V10.2886C14.1675 10.1194 14.1343 9.95183 14.0696 9.79548C14.005 9.63914 13.9101 9.49708 13.7905 9.37744C13.6708 9.2578 13.5288 9.16294 13.3724 9.09827C13.2161 9.03361 13.0485 9.00041 12.8793 9.00059M5.70532 8.99992H3.12199C2.77971 9.00186 2.45212 9.13918 2.21078 9.3819C1.96944 9.62461 1.83398 9.95298 1.83399 10.2953V12.8786C1.83381 13.0478 1.867 13.2153 1.93167 13.3717C1.99634 13.528 2.0912 13.6701 2.21084 13.7897C2.33048 13.9094 2.47253 14.0042 2.62888 14.0689C2.78523 14.1336 2.95279 14.1668 3.12199 14.1666H5.70532C6.04764 14.1669 6.37614 14.0316 6.61882 13.7901C6.86151 13.5487 6.99857 13.2209 6.99998 12.8786V10.2953C7.00016 10.1252 6.96679 9.95675 6.90179 9.7996C6.83679 9.64244 6.74143 9.49965 6.62118 9.37939C6.50092 9.25914 6.35813 9.16378 6.20097 9.09878C6.04382 9.03378 5.87539 9.00041 5.70532 9.00059M5.70532 1.83325H3.12199C2.95279 1.83308 2.78523 1.86627 2.62888 1.93094C2.47253 1.9956 2.33048 2.09047 2.21084 2.21011C2.0912 2.32974 1.99634 2.4718 1.93167 2.62815C1.867 2.7845 1.83381 2.95206 1.83399 3.12125V5.70459C1.83363 6.04691 1.969 6.37541 2.21044 6.61809C2.45187 6.86077 2.77967 6.99784 3.12199 6.99925H5.70532C5.87539 6.99943 6.04382 6.96606 6.20097 6.90106C6.35813 6.83606 6.50092 6.7407 6.62118 6.62044C6.74143 6.50019 6.83679 6.3574 6.90179 6.20024C6.96679 6.04309 7.00016 5.87465 6.99998 5.70459V3.12125C6.99857 2.77893 6.86151 2.45114 6.61882 2.2097C6.37614 1.96827 6.04764 1.8329 5.70532 1.83325ZM12.8793 1.83325H10.296C9.95366 1.8329 9.62516 1.96827 9.38248 2.2097C9.1398 2.45114 9.00273 2.77893 9.00132 3.12125V5.70459C9.0015 6.0479 9.13795 6.3771 9.38071 6.61986C9.62347 6.86262 9.95267 6.99908 10.296 6.99925H12.8793C13.2216 6.99784 13.5494 6.86077 13.7909 6.61809C14.0323 6.37541 14.1677 6.04691 14.1673 5.70459V3.12125C14.1675 2.95206 14.1343 2.7845 14.0696 2.62815C14.005 2.4718 13.9101 2.32974 13.7905 2.21011C13.6708 2.09047 13.5288 1.9956 13.3724 1.93094C13.2161 1.86627 13.0485 1.83308 12.8793 1.83325Z" stroke="#F5F5F6" stroke-width="1.5" stroke-linecap="round" stroke-linejoin="round"/>
</svg>
