<svg width="16" height="16" viewBox="0 0 16 16" fill="none" xmlns="http://www.w3.org/2000/svg">
<g clip-path="url(#clip0_1361_262)">
<path d="M1.16667 0.666748H9.5C10.144 0.666748 10.6667 1.18941 10.6667 1.83341V8.16675C10.6667 8.47617 10.5438 8.77291 10.325 8.99171C10.1062 9.2105 9.80942 9.33342 9.5 9.33342H5.374L3.658 11.0487C3.52203 11.1842 3.34901 11.2764 3.16075 11.3136C2.97248 11.3509 2.77739 11.3316 2.60008 11.2582C2.42276 11.1847 2.27115 11.0604 2.16436 10.901C2.05757 10.7415 2.00038 10.554 2 10.3621V9.33342H1.16667C0.857247 9.33342 0.560501 9.2105 0.341709 8.99171C0.122916 8.77291 0 8.47617 0 8.16675L0 1.83341C0 1.18941 0.522667 0.666748 1.16667 0.666748ZM1 1.83341V8.16675C1 8.25875 1.07467 8.33342 1.16667 8.33342H2.5C2.63261 8.33342 2.75979 8.38609 2.85355 8.47986C2.94732 8.57363 3 8.70081 3 8.83342V10.2934L4.81333 8.48008C4.90701 8.38629 5.0341 8.33353 5.16667 8.33342H9.5C9.5442 8.33342 9.5866 8.31586 9.61785 8.2846C9.64911 8.25334 9.66667 8.21095 9.66667 8.16675V1.83341C9.66667 1.78921 9.64911 1.74682 9.61785 1.71556C9.5866 1.68431 9.5442 1.66675 9.5 1.66675H1.16667C1.12246 1.66675 1.08007 1.68431 1.04882 1.71556C1.01756 1.74682 1 1.78921 1 1.83341Z" fill="white"/>
<path d="M15 5.83341C15 5.78921 14.9824 5.74682 14.9512 5.71556C14.9199 5.68431 14.8775 5.66675 14.8333 5.66675H12.5C12.3674 5.66675 12.2402 5.61407 12.1464 5.5203C12.0527 5.42653 12 5.29936 12 5.16675C12 5.03414 12.0527 4.90696 12.1464 4.81319C12.2402 4.71943 12.3674 4.66675 12.5 4.66675H14.8333C15.4773 4.66675 16 5.18941 16 5.83341V12.1667C16 12.4762 15.8771 12.7729 15.6583 12.9917C15.4395 13.2105 15.1428 13.3334 14.8333 13.3334H14V14.3621C13.9999 14.5541 13.9429 14.7419 13.8362 14.9015C13.7295 15.0612 13.5778 15.1857 13.4003 15.2592C13.2229 15.3326 13.0276 15.3519 12.8393 15.3144C12.6509 15.277 12.4778 15.1845 12.342 15.0487L10.626 13.3334H7.16667C6.85725 13.3334 6.5605 13.2105 6.34171 12.9917C6.12292 12.7729 6 12.4762 6 12.1667V11.1901C6 11.0575 6.05268 10.9303 6.14645 10.8365C6.24022 10.7428 6.36739 10.6901 6.5 10.6901C6.63261 10.6901 6.75978 10.7428 6.85355 10.8365C6.94732 10.9303 7 11.0575 7 11.1901V12.1667C7 12.2587 7.07467 12.3334 7.16667 12.3334H10.8333C10.9659 12.3335 11.093 12.3863 11.1867 12.4801L13 14.2934V12.8334C13 12.7008 13.0527 12.5736 13.1464 12.4799C13.2402 12.3861 13.3674 12.3334 13.5 12.3334H14.8333C14.8775 12.3334 14.9199 12.3159 14.9512 12.2846C14.9824 12.2533 15 12.211 15 12.1667V5.83341Z" fill="white"/>
</g>
<defs>
<clipPath id="clip0_1361_262">
<rect width="16" height="16" fill="white"/>
</clipPath>
</defs>
</svg>
