<svg width="16" height="16" viewBox="0 0 16 16" fill="none" xmlns="http://www.w3.org/2000/svg">
<path d="M3.49834 3.00269H2.83301C2.28072 3.00269 1.83301 3.4504 1.83301 4.00269V12.0027C1.83301 12.555 2.28072 13.0027 2.83301 13.0027H3.49834C4.05063 13.0027 4.49834 12.555 4.49834 12.0027V4.00269C4.49834 3.4504 4.05063 3.00269 3.49834 3.00269Z" stroke="#2D3748" stroke-linecap="round" stroke-linejoin="round"/>
<path d="M7.79912 3.00269H7.13379C6.5815 3.00269 6.13379 3.4504 6.13379 4.00269V12.0027C6.13379 12.555 6.5815 13.0027 7.13379 13.0027H7.79912C8.35141 13.0027 8.79912 12.555 8.79912 12.0027V4.00269C8.79912 3.4504 8.35141 3.00269 7.79912 3.00269Z" stroke="#2D3748" stroke-linecap="round" stroke-linejoin="round"/>
<path d="M10.1778 5.5853C10.0678 5.1753 10.3111 4.75397 10.7205 4.64463L11.4125 4.4593C11.8218 4.3493 12.2425 4.59263 12.3525 5.00197L14.1398 11.678C14.166 11.7753 14.1728 11.8769 14.1596 11.9769C14.1465 12.0768 14.1139 12.1732 14.0634 12.2605C14.013 12.3478 13.9459 12.4244 13.8659 12.4857C13.7859 12.547 13.6945 12.592 13.5971 12.618L12.9051 12.804C12.8077 12.8302 12.7061 12.8369 12.6061 12.8237C12.5061 12.8106 12.4097 12.7778 12.3224 12.7274C12.2351 12.6769 12.1586 12.6097 12.0973 12.5296C12.036 12.4495 11.9911 12.3581 11.9651 12.2606L10.1778 5.5853Z" stroke="#2D3748" stroke-linecap="round" stroke-linejoin="round"/>
</svg>
