<svg width="16" height="16" viewBox="0 0 16 16" fill="none" xmlns="http://www.w3.org/2000/svg">
<path d="M3.49932 3.00269H2.83398C2.2817 3.00269 1.83398 3.4504 1.83398 4.00269V12.0027C1.83398 12.555 2.2817 13.0027 2.83398 13.0027H3.49932C4.0516 13.0027 4.49932 12.555 4.49932 12.0027V4.00269C4.49932 3.4504 4.0516 3.00269 3.49932 3.00269Z" stroke="#F5F5F6" stroke-linecap="round" stroke-linejoin="round"/>
<path d="M7.8001 3.00269H7.13477C6.58248 3.00269 6.13477 3.4504 6.13477 4.00269V12.0027C6.13477 12.555 6.58248 13.0027 7.13477 13.0027H7.8001C8.35238 13.0027 8.8001 12.555 8.8001 12.0027V4.00269C8.8001 3.4504 8.35238 3.00269 7.8001 3.00269Z" stroke="#F5F5F6" stroke-linecap="round" stroke-linejoin="round"/>
<path d="M10.1788 5.5853C10.0688 5.1753 10.3121 4.75397 10.7214 4.64463L11.4134 4.4593C11.8228 4.3493 12.2434 4.59263 12.3534 5.00197L14.1408 11.678C14.167 11.7753 14.1737 11.8769 14.1606 11.9769C14.1475 12.0768 14.1148 12.1732 14.0644 12.2605C14.014 12.3478 13.9469 12.4244 13.8669 12.4857C13.7869 12.547 13.6955 12.592 13.5981 12.618L12.9061 12.804C12.8087 12.8302 12.7071 12.8369 12.6071 12.8237C12.5071 12.8106 12.4107 12.7778 12.3234 12.7274C12.236 12.6769 12.1595 12.6097 12.0982 12.5296C12.0369 12.4495 11.992 12.3581 11.9661 12.2606L10.1788 5.5853Z" stroke="#F5F5F6" stroke-linecap="round" stroke-linejoin="round"/>
</svg>
