<svg width="19" height="16" viewBox="0 0 19 16" fill="none" xmlns="http://www.w3.org/2000/svg">
<path d="M14.3003 8.66536H10.4738V11.9987C10.4738 12.1755 10.3932 12.3451 10.2497 12.4701C10.1062 12.5951 9.91152 12.6654 9.70855 12.6654C9.50559 12.6654 9.31094 12.5951 9.16742 12.4701C9.0239 12.3451 8.94327 12.1755 8.94327 11.9987V8.66536H5.11685C4.91388 8.66536 4.71923 8.59513 4.57571 8.4701C4.43219 8.34508 4.35156 8.17551 4.35156 7.9987C4.35156 7.82189 4.43219 7.65232 4.57571 7.52729C4.71923 7.40227 4.91388 7.33203 5.11685 7.33203H8.94327V3.9987C8.94327 3.82189 9.0239 3.65232 9.16742 3.52729C9.31094 3.40227 9.50559 3.33203 9.70855 3.33203C9.91152 3.33203 10.1062 3.40227 10.2497 3.52729C10.3932 3.65232 10.4738 3.82189 10.4738 3.9987V7.33203H14.3003C14.5032 7.33203 14.6979 7.40227 14.8414 7.52729C14.9849 7.65232 15.0655 7.82189 15.0655 7.9987C15.0655 8.17551 14.9849 8.34508 14.8414 8.4701C14.6979 8.59513 14.5032 8.66536 14.3003 8.66536Z" fill="black"/>
</svg>
